# xmcd
#
# Track frame offsets:
#	150
#	4380
#	19643
#	37901
#	55213
#	77084
#	96382
#	115270
#	140842
#	169613
#	184876
#	202188
#
# Disc length: 3078 seconds
#
# Revision: 0
# Processed by: cddbd v1.5.2PL0 Copyright (c) Steve Scherf et al.
# Submitted via: EasyCDDAExtractor 2010.4.0.0
#
DISCID=a40c040c
DTITLE=S.I.D-Sound - Miracle Planet
DYEAR=2010
DGENRE=Indie
TTITLE0=Intro
TTITLE1=Sweet Brownie
TTITLE2=Sneaker! 240 BABY
TTITLE3=Butterfly
TTITLE4=Wooly Bully
TTITLE5=조나단의 꿈
TTITLE6=Blow a kiss
TTITLE7=뒤따라가다
TTITLE8=Echo Space
TTITLE9=Sweet Brownie (off vocal)
TTITLE10=Butterfly (off vocal)
TTITLE11=Echo Space (off vocal)
EXTD=
EXTT0=
EXTT1=
EXTT2=
EXTT3=
EXTT4=
EXTT5=
EXTT6=
EXTT7=
EXTT8=
EXTT9=
EXTT10=
EXTT11=
PLAYORDER=
